<svg xmlns="http://www.w3.org/2000/svg" viewBox="0 0 160 160" role="img" aria-labelledby="title desc">
  <title id="title">Alkaafi Pharmacy emblem</title>
  <desc id="desc">A green and gold pharmacy emblem with a stylized A, mortar, pestle, and leaf.</desc>
  <path
    d="M103 18c2 0 5 1 6 3l34 112c2 6-2 11-9 11h-8c-4 0-8-2-9-6L91 58l-23 49c-2 4-6 7-11 7h-8c-6 0-10-6-7-12l45-79c2-3 5-5 8-5z"
    fill="#0b3d2e"
  />
  <path
    d="M82 74c14 1 29 8 42 17"
    fill="none"
    stroke="#d4af37"
    stroke-linecap="round"
    stroke-width="10"
  />
  <path
    d="M30 88c7 5 19 8 32 8 15 0 29-4 38-9 3 0 5 2 5 5 0 11-10 36-42 36S21 103 21 92c0-3 3-5 6-4z"
    fill="none"
    stroke="#0b3d2e"
    stroke-linecap="round"
    stroke-linejoin="round"
    stroke-width="6"
  />
  <path
    d="M38 81c7 4 16 6 26 6 11 0 22-2 31-6"
    fill="none"
    stroke="#0b3d2e"
    stroke-linecap="round"
    stroke-width="5"
  />
  <path
    d="M44 45l24 23"
    fill="none"
    stroke="#c79c35"
    stroke-linecap="round"
    stroke-width="10"
  />
  <circle cx="41" cy="42" r="8" fill="#c79c35" />
  <path
    d="M86 117c20-3 31-20 34-40-17 2-31 14-38 29-3 8-1 13 4 11z"
    fill="#7c9b41"
  />
  <path
    d="M88 114c8-12 17-23 28-33"
    fill="none"
    stroke="#f2e9d8"
    stroke-linecap="round"
    stroke-width="3"
  />
</svg>
